<svg xmlns="http://www.w3.org/2000/svg" viewBox="0 0 32 32"><g id="notes"><path d="M25.14,26.07a1,1,0,0,0-1.3.55,2.19,2.19,0,0,1-2,1.38H10.2A2.21,2.21,0,0,1,8,25.8V6.2A2.21,2.21,0,0,1,10.2,4H21.8a2.19,2.19,0,0,1,2,1.38,1,1,0,1,0,1.85-.76A4.18,4.18,0,0,0,21.8,2H10.2A4.21,4.21,0,0,0,6,6.2V25.8A4.21,4.21,0,0,0,10.2,30H21.8a4.18,4.18,0,0,0,3.89-2.62A1,1,0,0,0,25.14,26.07Z"/><path d="M29.53,9.52,25.84,8a1,1,0,0,0-.76,0,1,1,0,0,0-.55.54l-1.16,2.77h0L19.1,21.4A1,1,0,0,0,19,22l.68,3.54a1,1,0,0,0,.59.74,1.07,1.07,0,0,0,.39.07,1,1,0,0,0,.55-.16l3-2a1,1,0,0,0,.37-.45l5.43-12.9A1,1,0,0,0,29.53,9.52ZM26,10.2l1.84.78-.39.92-1.84-.78ZM22.91,22.68l-1.51,1-.34-1.77L24.82,13l1.85.78Z"/><path d="M20,9a1,1,0,0,0-1-1H12a1,1,0,0,0,0,2h7A1,1,0,0,0,20,9Z"/><path d="M18,13a1,1,0,0,0-1-1H12a1,1,0,0,0,0,2h5A1,1,0,0,0,18,13Z"/><path d="M12,24a1,1,0,0,0,0,2h2a1,1,0,0,0,0-2Z"/></g></svg>
