<svg width="14" height="15" viewBox="0 0 14 15" fill="none" xmlns="http://www.w3.org/2000/svg">
<path d="M5.24988 4.46905H6.40457V9.75499C6.40457 9.82374 6.46082 9.87999 6.52957 9.87999H7.46707C7.53582 9.87999 7.59207 9.82374 7.59207 9.75499V4.46905H8.74988C8.85457 4.46905 8.91238 4.34874 8.84832 4.26749L7.09832 2.05187C7.08662 2.03693 7.07168 2.02484 7.05463 2.01653C7.03757 2.00822 7.01885 2.00391 6.99988 2.00391C6.98091 2.00391 6.96218 2.00822 6.94513 2.01653C6.92807 2.02484 6.91313 2.03693 6.90144 2.05187L5.15144 4.26593C5.08738 4.34874 5.14519 4.46905 5.24988 4.46905ZM12.7186 9.28624H11.7811C11.7124 9.28624 11.6561 9.34249 11.6561 9.41124V11.8175H2.34363V9.41124C2.34363 9.34249 2.28738 9.28624 2.21863 9.28624H1.28113C1.21238 9.28624 1.15613 9.34249 1.15613 9.41124V12.505C1.15613 12.7816 1.37957 13.005 1.65613 13.005H12.3436C12.6202 13.005 12.8436 12.7816 12.8436 12.505V9.41124C12.8436 9.34249 12.7874 9.28624 12.7186 9.28624Z" fill="black" fill-opacity="0.25"/>
</svg>
